<svg width="106" height="134" fill="none" xmlns="http://www.w3.org/2000/svg"><g opacity=".2"><circle cx="102.263" cy="73.924" r="3.084" transform="rotate(90 102.263 73.924)" fill="#397096"/><circle cx="102.264" cy="3.084" r="3.084" transform="rotate(90 102.264 3.084)" fill="#78ACC6"/><circle cx="88.095" cy="3.084" r="3.084" transform="rotate(90 88.095 3.084)" fill="#78ACC6"/><circle cx="73.927" cy="3.084" r="3.084" transform="rotate(90 73.927 3.084)" fill="#78ACC6"/><circle cx="59.758" cy="3.084" r="3.084" transform="rotate(90 59.758 3.084)" fill="#78ACC6"/><circle cx="45.59" cy="3.084" r="3.084" transform="rotate(90 45.59 3.084)" fill="#78ACC6"/><circle cx="31.421" cy="3.084" r="3.084" transform="rotate(90 31.421 3.084)" fill="#78ACC6"/><circle cx="17.253" cy="3.084" r="3.084" transform="rotate(90 17.253 3.084)" fill="#78ACC6"/><circle cx="3.084" cy="3.084" r="3.084" transform="rotate(90 3.084 3.084)" fill="#78ACC6"/><circle cx="102.264" cy="17.252" r="3.084" transform="rotate(90 102.264 17.252)" fill="#78ACC6"/><circle cx="88.095" cy="17.252" r="3.084" transform="rotate(90 88.095 17.252)" fill="#78ACC6"/><circle cx="73.927" cy="17.252" r="3.084" transform="rotate(90 73.927 17.252)" fill="#78ACC6"/><circle cx="59.758" cy="17.252" r="3.084" transform="rotate(90 59.758 17.252)" fill="#78ACC6"/><circle cx="45.59" cy="17.252" r="3.084" transform="rotate(90 45.59 17.252)" fill="#78ACC6"/><circle cx="31.421" cy="17.252" r="3.084" transform="rotate(90 31.421 17.252)" fill="#78ACC6"/><circle cx="17.253" cy="17.252" r="3.084" transform="rotate(90 17.253 17.252)" fill="#78ACC6"/><circle cx="3.084" cy="17.252" r="3.084" transform="rotate(90 3.084 17.252)" fill="#78ACC6"/><circle cx="102.264" cy="31.42" r="3.084" transform="rotate(90 102.264 31.42)" fill="#78ACC6"/><circle cx="88.095" cy="31.42" r="3.084" transform="rotate(90 88.095 31.42)" fill="#78ACC6"/><circle cx="73.927" cy="31.42" r="3.084" transform="rotate(90 73.927 31.42)" fill="#78ACC6"/><circle cx="59.758" cy="31.42" r="3.084" transform="rotate(90 59.758 31.42)" fill="#78ACC6"/><circle cx="45.59" cy="31.42" r="3.084" transform="rotate(90 45.59 31.42)" fill="#78ACC6"/><circle cx="31.421" cy="31.42" r="3.084" transform="rotate(90 31.421 31.42)" fill="#78ACC6"/><circle cx="17.253" cy="31.42" r="3.084" transform="rotate(90 17.253 31.42)" fill="#78ACC6"/><circle cx="3.084" cy="31.42" r="3.084" transform="rotate(90 3.084 31.42)" fill="#78ACC6"/><circle cx="102.264" cy="45.588" r="3.084" transform="rotate(90 102.264 45.588)" fill="#78ACC6"/><circle cx="88.095" cy="45.588" r="3.084" transform="rotate(90 88.095 45.588)" fill="#78ACC6"/><circle cx="73.927" cy="45.588" r="3.084" transform="rotate(90 73.927 45.588)" fill="#78ACC6"/><circle cx="59.758" cy="45.588" r="3.084" transform="rotate(90 59.758 45.588)" fill="#78ACC6"/><circle cx="45.59" cy="45.588" r="3.084" transform="rotate(90 45.59 45.588)" fill="#78ACC6"/><circle cx="31.421" cy="45.588" r="3.084" transform="rotate(90 31.421 45.588)" fill="#78ACC6"/><circle cx="17.253" cy="45.588" r="3.084" transform="rotate(90 17.253 45.588)" fill="#78ACC6"/><circle cx="3.084" cy="45.588" r="3.084" transform="rotate(90 3.084 45.588)" fill="#78ACC6"/><circle cx="102.264" cy="59.756" r="3.084" transform="rotate(90 102.264 59.756)" fill="#397096"/><circle cx="88.095" cy="59.756" r="3.084" transform="rotate(90 88.095 59.756)" fill="#397096"/><circle cx="73.927" cy="59.756" r="3.084" transform="rotate(90 73.927 59.756)" fill="#78ACC6"/><circle cx="59.758" cy="59.756" r="3.084" transform="rotate(90 59.758 59.756)" fill="#78ACC6"/><circle cx="45.59" cy="59.756" r="3.084" transform="rotate(90 45.59 59.756)" fill="#78ACC6"/><circle cx="31.421" cy="59.756" r="3.084" transform="rotate(90 31.421 59.756)" fill="#78ACC6"/><circle cx="17.253" cy="59.756" r="3.084" transform="rotate(90 17.253 59.756)" fill="#78ACC6"/><circle cx="3.084" cy="59.756" r="3.084" transform="rotate(90 3.084 59.756)" fill="#78ACC6"/><circle cx="88.095" cy="73.924" r="3.084" transform="rotate(90 88.095 73.924)" fill="#397096"/><circle cx="73.926" cy="73.924" r="3.084" transform="rotate(90 73.926 73.924)" fill="#397096"/><circle cx="59.758" cy="73.924" r="3.084" transform="rotate(90 59.758 73.924)" fill="#397096"/><circle cx="45.589" cy="73.924" r="3.084" transform="rotate(90 45.59 73.924)" fill="#397096"/><circle cx="31.421" cy="73.924" r="3.084" transform="rotate(90 31.421 73.924)" fill="#397096"/><circle cx="17.253" cy="73.924" r="3.084" transform="rotate(90 17.253 73.924)" fill="#397096"/><circle cx="3.084" cy="73.924" r="3.084" transform="rotate(90 3.084 73.924)" fill="#397096"/><circle cx="102.263" cy="88.092" r="3.084" transform="rotate(90 102.263 88.092)" fill="#397096"/><circle cx="88.095" cy="88.092" r="3.084" transform="rotate(90 88.095 88.092)" fill="#397096"/><circle cx="73.926" cy="88.092" r="3.084" transform="rotate(90 73.926 88.092)" fill="#397096"/><circle cx="59.758" cy="88.092" r="3.084" transform="rotate(90 59.758 88.092)" fill="#397096"/><circle cx="45.589" cy="88.092" r="3.084" transform="rotate(90 45.59 88.092)" fill="#397096"/><circle cx="31.421" cy="88.092" r="3.084" transform="rotate(90 31.421 88.092)" fill="#397096"/><circle cx="17.253" cy="88.092" r="3.084" transform="rotate(90 17.253 88.092)" fill="#397096"/><circle cx="3.084" cy="88.092" r="3.084" transform="rotate(90 3.084 88.092)" fill="#397096"/><circle cx="102.263" cy="102.26" r="3.084" transform="rotate(90 102.263 102.26)" fill="#397096"/><circle cx="88.095" cy="102.26" r="3.084" transform="rotate(90 88.095 102.26)" fill="#397096"/><circle cx="73.926" cy="102.26" r="3.084" transform="rotate(90 73.926 102.26)" fill="#397096"/><circle cx="59.758" cy="102.26" r="3.084" transform="rotate(90 59.758 102.26)" fill="#397096"/><circle cx="45.589" cy="102.26" r="3.084" transform="rotate(90 45.59 102.26)" fill="#397096"/><circle cx="31.421" cy="102.26" r="3.084" transform="rotate(90 31.421 102.26)" fill="#397096"/><circle cx="17.253" cy="102.26" r="3.084" transform="rotate(90 17.253 102.26)" fill="#397096"/><circle cx="3.084" cy="102.26" r="3.084" transform="rotate(90 3.084 102.26)" fill="#397096"/><circle cx="102.263" cy="116.428" r="3.084" transform="rotate(90 102.263 116.428)" fill="#397096"/><circle cx="88.095" cy="116.428" r="3.084" transform="rotate(90 88.095 116.428)" fill="#397096"/><circle cx="73.926" cy="116.428" r="3.084" transform="rotate(90 73.926 116.428)" fill="#397096"/><circle cx="59.758" cy="116.428" r="3.084" transform="rotate(90 59.758 116.428)" fill="#397096"/><circle cx="45.589" cy="116.428" r="3.084" transform="rotate(90 45.59 116.428)" fill="#397096"/><circle cx="31.421" cy="116.428" r="3.084" transform="rotate(90 31.421 116.428)" fill="#397096"/><circle cx="17.253" cy="116.428" r="3.084" transform="rotate(90 17.253 116.428)" fill="#397096"/><circle cx="3.084" cy="116.428" r="3.084" transform="rotate(90 3.084 116.428)" fill="#397096"/><circle cx="102.263" cy="130.596" r="3.084" transform="rotate(90 102.263 130.596)" fill="#397096"/><circle cx="88.095" cy="130.596" r="3.084" transform="rotate(90 88.095 130.596)" fill="#397096"/><circle cx="73.926" cy="130.596" r="3.084" transform="rotate(90 73.926 130.596)" fill="#397096"/><circle cx="59.758" cy="130.596" r="3.084" transform="rotate(90 59.758 130.596)" fill="#397096"/><circle cx="45.589" cy="130.596" r="3.084" transform="rotate(90 45.59 130.596)" fill="#397096"/><circle cx="31.421" cy="130.596" r="3.084" transform="rotate(90 31.421 130.596)" fill="#397096"/><circle cx="17.253" cy="130.596" r="3.084" transform="rotate(90 17.253 130.596)" fill="#397096"/><circle cx="3.084" cy="130.596" r="3.084" transform="rotate(90 3.084 130.596)" fill="#397096"/></g></svg>