<?xml version="1.0" encoding="utf-8"?>
<!-- Generator: Adobe Illustrator 23.0.2, SVG Export Plug-In . SVG Version: 6.00 Build 0)  -->
<svg version="1.1" xmlns="http://www.w3.org/2000/svg" xmlns:xlink="http://www.w3.org/1999/xlink" x="0px" y="0px"
	 viewBox="0 0 709.97 653.29" style="enable-background:new 0 0 709.97 653.29;" xml:space="preserve">
<style type="text/css">
	.st0{fill:#FFFFFF;}
	.st1{fill:#F3B63F;}
	.st2{fill:#E72A8B;}
	.st3{fill:#FFFFFF;stroke:#031F43;stroke-width:2;stroke-linecap:round;stroke-linejoin:round;stroke-miterlimit:10;}
	.st4{fill:#031F43;}
	.st5{fill:none;stroke:#031F43;stroke-width:2;stroke-linecap:round;stroke-linejoin:round;stroke-miterlimit:10;}
	.st6{fill:#347CE1;stroke:#031F43;stroke-width:2;stroke-linecap:round;stroke-linejoin:round;stroke-miterlimit:10;}
	.st7{fill:#A7CCE9;}
	.st8{fill:#347CE1;}
</style>
<path class="st0" d="M291.74,92.36c-0.32-0.11-2.25,8.89-2.46,10.6s0.32,5.25,0.32,5.25l-2.36,3.75l1.61,2.25
	c0,0-0.32,10.82,2.36,14.46c2.68,3.64,6,1.82,6,1.82l3.43-1.29l4.18,8.25c0,0,5.46,2.78,11.03,0.75c5.57-2.03,5.25-7.39,5.25-7.39
	l-3.64-14.35c0,0,3.11-6.32-0.75-14.67c-3.86-8.35-10.6-13.71-13.07-13.71C301.16,88.07,291.74,92.36,291.74,92.36z"/>
<path class="st1" d="M424.82,379.89c0,0,2.64,11.18,9.35,15.24s11.99,3.86,11.79,2.03c-0.2-1.83-5.49-10.77-5.69-14.02
	c-0.2-3.25,2.44-3.05-0.2-3.25C437.42,379.69,424.82,379.89,424.82,379.89z"/>
<path class="st1" d="M476.23,379.89c0,0,2.64,11.18,9.35,15.24c6.71,4.06,11.99,3.86,11.79,2.03s-5.49-10.77-5.69-14.02
	c-0.2-3.25,2.44-3.05-0.2-3.25C488.83,379.69,476.23,379.89,476.23,379.89z"/>
<path class="st1" d="M447.58,379.89c0,0,2.03,13.01,8.74,18.26c6.71,5.25,14.63,6.3,17.27,5.04c2.64-1.26-1.63-6.71-3.05-9.86
	c-1.42-3.15-2.03-13.22-2.03-13.22L447.58,379.89z"/>
<path class="st2" d="M483.67,365.79c-48.7-4.53-99.8-5.33-183.47-8.68c-47.33-1.9-177.76-11.64-195.55-13.97
	c-21.66-2.84-37.37-5.66-38.88-0.76c-1.51,4.91,20.76,11.33,42.66,15.86s155.91,24.16,214.04,25.67s183.09-1.89,191.39-5.66
	C522.17,374.47,491.8,366.54,483.67,365.79z"/>
<path class="st3" d="M281.63,274.39c0,0-6.74,2-7.1,3.46c-0.36,1.46,0.55,6.19,1.64,14.48c1.09,8.29,0.09,19.58,0.46,25.68
	c0.36,6.1,2.19,19.31,3.64,24.13c1.46,4.83,1.27,13.3-0.18,14.39c-1.46,1.09-5.01,0.09-10.02-0.27c-5.01-0.36-10.38,0.46-16.03,1.09
	c-5.65,0.64-14.39,2-17.39,1.09s-2.46-2.82-2.46-3.46s10.93-2.73,15.21-4.1c4.28-1.37,12.67-6.25,13.25-8.11s-0.57-7.16-3.44-18.91
	c-2.87-11.75-8.6-27.08-10.6-37.82c-2.01-10.74-0.36-17.79,1.72-22.78c3.52-8.46,17.91-19.2,17.91-19.2s12.29-2.54,17.46,10.38
	S281.63,274.39,281.63,274.39z"/>
<path class="st3" d="M366.82,276.74c0,0,0.55,18.99,1.3,21.18c0.76,2.18,4.2,6.55,8.06,13.27c3.86,6.72,2.52,15.46,2.52,20.92
	c0,5.46,1.18,10.67,2.02,13.02s9.32,10.16,12.43,13.02c3.11,2.86,6.64,7.48,3.86,8.99s-8.48,2-13.42-0.22
	c-4.94-2.22-13.34-8.15-15.31-11.73c-1.98-3.58-2.72-7.53-4.2-11.36c-1.48-3.83-6.17-13.46-7.78-17.29
	c-1.61-3.83-2.47-9.01-2.96-11.61s-5.8-9.26-7.9-14.45s-5.19-16.79-5.19-16.79s0.69-10.14,10.72-12.33
	C361.01,269.17,366.82,276.74,366.82,276.74z"/>
<g>
	<path class="st4" d="M312.16,110.52c-1.01,0.2-1.92-0.61-1.87-1.64c0.14-2.77,0.08-7.23-1.41-9.95c-2.3-4.19-4.53-6.46-9.15-5.72
		c-4.62,0.74-7.4,2.77-11.28,0.55c-3.88-2.22-4.99-4.25-4.99-4.25s3.51,0.18,7.58-4.07c4.07-4.25,7.4-8.69,13.5-5.55
		s2.96,4.99,8.32,6.1c5.36,1.11,9.25-1.48,14.24,2.59c4.99,4.07,1.11,18.68-1.29,24.05c-0.9,2.01-2.04,3.63-3.11,4.87
		c-1.7,1.97-4.57,2.44-6.86,1.22l-1.04-0.56c0,0,2.74-4.22,0.71-6.62C314.52,110.4,313.23,110.31,312.16,110.52z"/>
	<path class="st5" d="M294.98,103.68c0,0,4.24-1.96,9.33,0.73"/>
	<path class="st5" d="M290.75,120.15c0,0,1.3,0.19,2.84-0.37c1.55-0.56,2.54-1.17,2.54-1.17s0.12,3.71-1.79,4.39
		C292.41,123.67,290.75,120.15,290.75,120.15z"/>
	<path class="st5" d="M289.51,102.77c0,0,3.09,1.61,2.29,3.59c-0.8,1.98-4.33,5.01-4.39,5.69c-0.06,0.68,4.14,3.71,4.14,3.71"/>
	<path class="st5" d="M295.63,106.23c0,0,2.09-1.74,5.75,0.69"/>
	<path class="st5" d="M296.31,106.11c0,0,0.19,1.67,1.98,1.79c1.79,0.12,1.24-1.79,1.24-1.79"/>
	<path class="st5" d="M291.54,106.88c0,0-0.98-0.71-1.91-0.65"/>
	<path class="st5" d="M291.05,94.85c0,0-1.79,7.17-1.92,9.21s0.8,4.88,0.8,4.88"/>
	<path class="st5" d="M288.58,113.59c0,0,0.12,9.21,1.92,13.73c1.79,4.51,5.07,4.02,7.36,3.03s10.76-7.3,12.43-9.21
		c1.67-1.92,1.55-2.35,1.55-2.35s2.35,0.93,3.83-0.93c1.48-1.86,1.98-6.86,1.98-6.86"/>
</g>
<line class="st5" x1="316.97" y1="117.36" x2="320.63" y2="130.25"/>
<path class="st5" d="M300.44,128.91c0,0,3.67,6.55,3.8,8.06"/>
<path class="st6" d="M324.07,128.37c0,0-4.97,7.38-11.92,8.66s-12.14-1.06-12.14-1.06s-9.79,1.05-18.63,6.48
	c-8.84,5.43-21.4,14.73-26.36,16.9c-4.96,2.17-13.03,5.43-13.03,5.43s0.62,4.03,3.88,8.06s7.75,8.99,7.75,8.99
	s21.71-11.79,26.98-9.77c5.27,2.02,8.06,1.4,13.65,18.14s6.36,28.54,5.12,30.86c-1.24,2.33-5.15,8.89-8.99,11.17
	c-5.05,2.99-13.5,6.41-16.29,7.96s-7.28,3.83-7.28,3.83s9.65,1.82,13.39,6.94c4.12,5.63,4.6,10.12,3.82,14.77
	c-0.78,4.65-1.71,9.3-1.71,9.3s8.53-0.47,19.7-4.96c11.17-4.5,21.71-8.06,21.71-8.06s7.91,5.43,9.77,9.46
	c1.86,4.03,7.14,15.07,7.14,15.07s6.23-8.96,13.36-9.74c7.13-0.78,12.85-0.06,12.85-0.06s0.78-12.72-2.33-23.73
	c-3.1-11.01-3.88-21.71-5.43-26.67c-1.55-4.96-4.96-17.83-5.27-26.52c-0.31-8.68,1.4-30.09,1.4-30.09l13.8,16.13
	c0,0,6.51-2.64,10.24-4.34c3.72-1.71,5.12-6.51,5.12-6.51s-26.21-37.37-34.43-40.79s-22.64-0.93-22.64-0.93L324.07,128.37z"/>
<path class="st3" d="M250.41,178.39c0,0-9.83,4.99-18.77,7.97c-8.94,2.98-26.37,4.84-30.61,5.88c-4.25,1.04-16.31,5.51-19.14,8.86
	c-2.83,3.35-8.12,5.51-12.29,7.52c-4.17,2.01-4.69,2.09-5.59,1.19c-0.89-0.89-0.22-3.05,1.86-5.29c2.09-2.23,4.32-4.47,4.32-4.47
	s-10.43-3.87-15.2-3.13c-4.77,0.74-8.57,2.53-10.06,1.71c-1.49-0.82-0.97-2.31-0.97-2.31s-0.89-1.34,0.07-2.46s5.44-2.9,13.93-2.9
	s29.09-3.68,35.93-5.63c6.84-1.96,22.48-10.1,29.65-12.87c7.17-2.77,18.57-6.68,18.57-6.68L250.41,178.39z"/>
<path class="st5" d="M143.97,196.35c0,0,9.46-2.9,17.73-2.76"/>
<path class="st3" d="M371.04,185.35c0,0,3.79,4.4,5.51,6.12c1.72,1.72,3.62,5.15,11.48,3.43c7.86-1.72,16.99-13.83,19.34-16.72
	c2.35-2.89,5.91-10.3,6.64-10.57s6.08-3.16,8.52-7.04c2.44-3.89,6.36-6.34,7.98-7.42c1.63-1.08,5.69-4.43,5.24-5.15
	c-0.45-0.72-9.22,2.98-9.49,2.71c-0.27-0.27,10.12-9.22,8.41-9.94c-1.72-0.72-9.58,5.51-10.12,4.88s9.22-12.92,7.68-13.56
	c-1.54-0.63-10.85,10.85-11.12,10.03c-0.27-0.81,6.64-12.15,5.24-12.92c-2.99-1.65-16.07,18.14-16.61,18.41s-4.04-9.83-4.85-9.3
	c-0.81,0.54-0.92,2.47,0.21,9.46c0.6,3.75-0.61,10.75-1.83,14.38c-1.21,3.64-16.03,13.07-16.44,13.2c-0.4,0.13-2.48-0.35-2.48-0.35
	L371.04,185.35z"/>
<g>
	<path class="st7" d="M208.36,469.82c0,0-17.88-3.9-25.55-8.86c-3.1-2-5.32-4.24-6.92-6.45c-3.87-5.37-1.67-12.96,4.46-15.47
		c15.87-6.52,51.48-20.51,83.35-28.55c42.56-10.74,77.96-16.04,82.45-17.75c4.5-1.72,18.72-22.97,38.68-35.12
		c19.96-12.15,25.56-12.86,30.43-10.14c4.87,2.72-2.03,23.34,0.57,38.06s9.28,23.86,24.9,31.1c15.61,7.24,48.17,17.95,50.47,18.06
		c2.3,0.1,22.61-11.45,26.57-9.74c3.96,1.72,0.8,11.95,6.88,17.6c6.08,5.66,18.64,8.34,23.27,7.79
		c4.64-0.56,22.48-12.61,35.71-16.43c13.24-3.81,48.18-16.05,61.37-22.94s30.21-22.06,33.77-20.17
		c3.56,1.89-22.77,35.84-44.16,50.04c-21.39,14.2-35.63,18.74-38.06,25.73c-2.43,7-3.93,18.84,2.96,32.02
		c6.89,13.19,8.79,17.88,6.41,19.5c-2.38,1.62-23.32-10.86-35.7-26.03c-12.37-15.16-18.04-21.38-21.07-22.29
		c-3.03-0.91-20.67-1.71-23.23-0.29c-2.56,1.42-9.73,6.86-9.47,9.75c0.25,2.89,6.3,9.32,5.26,11c-1.04,1.68-20.23-2.84-25.56-8.27
		c-5.32-5.43-6.98-7.04-6.98-7.04s-6.01,1.26-6.65,2.58c-0.64,1.32-4.7,6.12-3.48,13.1c1.22,6.97,3.78,14,2.96,15.12
		c-0.82,1.12-32.05-17.6-35.11-17.74c-3.07-0.14-46.25,7.49-47.83,8.38c-1.58,0.89,36.26,25.83,52.4,33.06s28.46,11.44,27.4,13.76
		s-59.81-11.76-81.16-19.23c-21.36-7.47-59.72-24.11-59.72-24.11s-47.46-1.33-74.79-6.11C214.17,485.2,208.36,469.82,208.36,469.82z
		"/>
	<path class="st8" d="M175.78,454.43c0,0,6.04,11,17.04,14c6.82,1.86,11.36,0.28,13.03,3.33s15.59,14.09,49.61,21.74
		c21.54,4.84,84.55,8.48,84.55,8.48s81.48,35.83,139.43,42.97c7.66,0.94-8.97-9.99-41.58-23.84c-15.8-6.71-35.48-21.9-36.04-23.56
		c-0.55-1.66,41.62-10.18,46.73-8.14s30.73,15.13,33.44,16.35s-1.74-11.79-1.73-18.19c0.01-6.22-0.21-8.09,3.36-9.15
		c3.58-1.06,5.03-2.77,6.71-1.17c2.35,2.23,11.1,10.91,26.52,15.31c7.24,2.07,6.86,1.14,5.64-2.3c-1.09-3.08-5.36-9.34-3.7-13.23
		c1.66-3.88,6.38-7.48,9.15-7.76c2.77-0.28,21.19,0.55,21.19,0.55s1.98-7.84-5.01-9.51c-6.99-1.68-20.05-1.19-40.42-1.3
		s-32.91,0.67-53.3,1.1s-33.2-4.78-44.78-6.93c-11.58-2.16-32.46,8.84-43.99,5.33c-11.52-3.51-20.3-1.74-27.63-1.8
		c-7.33-0.06-19.3,0.21-29.53,4.09c-10.23,3.88-36.59,10.01-47.7,9.23c-11.1-0.78-29.43-11.89-40.01-10.25
		c-23.48,3.65-40.87-5.25-40.87-5.25"/>
	<path class="st5" d="M207.6,469.67c0,0,8.75,1.5,16.43,2.29"/>
	
		<ellipse transform="matrix(0.1427 -0.9898 0.9898 0.1427 -256.184 610.7232)" class="st4" cx="224.44" cy="453.24" rx="3.52" ry="2.42"/>
	<path class="st5" d="M296.16,453c0,0,3.17,8.76-0.52,20.56"/>
	<path class="st5" d="M302.87,453.31c0,0,3.17,8.76-0.52,20.56"/>
	<path class="st5" d="M309.16,453.59c0,0,3.17,8.76-0.52,20.56"/>
	<path class="st5" d="M315.87,453.9c0,0,3.17,8.76-0.52,20.56"/>
</g>
</svg>
